<?xml version="1.0" encoding="utf-8"?>
<!-- Generator: Adobe Illustrator 22.0.0, SVG Export Plug-In . SVG Version: 6.00 Build 0)  -->
<svg version="1.1" xmlns="http://www.w3.org/2000/svg" xmlns:xlink="http://www.w3.org/1999/xlink" x="0px" y="0px"
	 viewBox="0 0 256 256" style="enable-background:new 0 0 256 256;" xml:space="preserve">
<style type="text/css">
	.st0{display:none;}
	.st1{display:inline;}
	.st2{fill:none;stroke:#6B1D1D;stroke-width:0.5;stroke-miterlimit:10;}
	.st3{fill:#3A312A;}
	.st4{fill:#87796F;}
	.st5{fill:#D5DE58;}
	.st6{fill:#695B51;}
	.st7{fill:#FCE8CB;}
	.st8{fill:#F16C7A;}
	.st9{fill:#8AC6DD;}
	.st10{fill:#DECAAD;}
	.st11{fill:#D6DF58;}
	.st12{fill-rule:evenodd;clip-rule:evenodd;fill:#FCE8CB;}
	.st13{fill:#F5978A;}
	.st14{fill:#D7E057;}
	.st15{fill-rule:evenodd;clip-rule:evenodd;fill:#87796F;}
	.st16{fill:#6CA8BF;}
	.st17{fill:#B9C239;}
	.st18{fill:#D34E5C;}
	.st19{fill:#FAE6CA;}
	.st20{fill:#F8E4C8;}
	.st21{fill:#8AC5DC;}
	.st22{fill:#EF6D7A;}
	.st23{fill:#EB6E7A;}
	.st24{fill:#89C4DB;}
	.st25{fill-rule:evenodd;clip-rule:evenodd;fill:#F16C7A;}
	.st26{fill:#F7E3C7;}
	.st27{fill:#F6E2C6;}
	.st28{fill:#ED6E7A;}
	.st29{fill:#8AC3DA;}
	.st30{fill:#D5DC57;}
	.st31{fill-rule:evenodd;clip-rule:evenodd;fill:#D7E057;}
	.st32{fill-rule:evenodd;clip-rule:evenodd;fill:#F8E4C8;}
	.st33{fill:#D4DB56;}
	.st34{fill:#F59689;}
	.st35{fill:#DDC9AC;}
	.st36{fill:#D24E5C;}
	.st37{fill:#6A5C52;}
	.st38{fill:#6CA6BE;}
	.st39{fill:#B8C136;}
	.st40{fill-rule:evenodd;clip-rule:evenodd;fill:#FAE6CA;}
</style>
<g id="Layer_2" class="st0">
	<g class="st1">
		<g>
			<line class="st2" x1="0" y1="4.829" x2="256" y2="4.829"/>
			<line class="st2" x1="0" y1="16.56" x2="256" y2="16.56"/>
			<line class="st2" x1="0" y1="28.29" x2="256" y2="28.29"/>
			<line class="st2" x1="0" y1="40.021" x2="256" y2="40.021"/>
			<line class="st2" x1="0" y1="51.751" x2="256" y2="51.751"/>
			<line class="st2" x1="0" y1="63.482" x2="256" y2="63.482"/>
			<line class="st2" x1="0" y1="75.213" x2="256" y2="75.213"/>
			<line class="st2" x1="0" y1="86.943" x2="256" y2="86.943"/>
			<line class="st2" x1="0" y1="98.674" x2="256" y2="98.674"/>
			<line class="st2" x1="0" y1="110.404" x2="256" y2="110.404"/>
			<line class="st2" x1="0" y1="122.135" x2="256" y2="122.135"/>
			<line class="st2" x1="0" y1="133.865" x2="256" y2="133.865"/>
			<line class="st2" x1="0" y1="145.596" x2="256" y2="145.596"/>
			<line class="st2" x1="0" y1="157.326" x2="256" y2="157.326"/>
			<line class="st2" x1="0" y1="169.057" x2="256" y2="169.057"/>
			<line class="st2" x1="0" y1="180.788" x2="256" y2="180.788"/>
			<line class="st2" x1="0" y1="192.518" x2="256" y2="192.518"/>
			<line class="st2" x1="0" y1="204.249" x2="256" y2="204.249"/>
			<line class="st2" x1="0" y1="215.979" x2="256" y2="215.979"/>
			<line class="st2" x1="0" y1="227.71" x2="256" y2="227.71"/>
			<line class="st2" x1="0" y1="239.44" x2="256" y2="239.44"/>
			<line class="st2" x1="0" y1="251.171" x2="256" y2="251.171"/>
		</g>
		<g>
			<line class="st2" x1="251.171" y1="0" x2="251.171" y2="256"/>
			<line class="st2" x1="239.44" y1="0" x2="239.44" y2="256"/>
			<line class="st2" x1="227.71" y1="0" x2="227.71" y2="256"/>
			<line class="st2" x1="215.979" y1="0" x2="215.979" y2="256"/>
			<line class="st2" x1="204.249" y1="0" x2="204.249" y2="256"/>
			<line class="st2" x1="192.518" y1="0" x2="192.518" y2="256"/>
			<line class="st2" x1="180.788" y1="0" x2="180.788" y2="256"/>
			<line class="st2" x1="169.057" y1="0" x2="169.057" y2="256"/>
			<line class="st2" x1="157.326" y1="0" x2="157.326" y2="256"/>
			<line class="st2" x1="145.596" y1="0" x2="145.596" y2="256"/>
			<line class="st2" x1="133.865" y1="0" x2="133.865" y2="256"/>
			<line class="st2" x1="122.135" y1="0" x2="122.135" y2="256"/>
			<line class="st2" x1="110.404" y1="0" x2="110.404" y2="256"/>
			<line class="st2" x1="98.674" y1="0" x2="98.674" y2="256"/>
			<line class="st2" x1="86.943" y1="0" x2="86.943" y2="256"/>
			<line class="st2" x1="75.213" y1="0" x2="75.213" y2="256"/>
			<line class="st2" x1="63.482" y1="0" x2="63.482" y2="256"/>
			<line class="st2" x1="51.751" y1="0" x2="51.751" y2="256"/>
			<line class="st2" x1="40.021" y1="0" x2="40.021" y2="256"/>
			<line class="st2" x1="28.29" y1="0" x2="28.29" y2="256"/>
			<line class="st2" x1="16.56" y1="0" x2="16.56" y2="256"/>
			<line class="st2" x1="4.829" y1="0" x2="4.829" y2="256"/>
		</g>
	</g>
</g>
<g id="Layer_1">
	<g>
		<path class="st4" d="M16.5,143.018v58.774c0,9.447,7.658,17.105,17.105,17.105h188.789c9.447,0,17.105-7.658,17.105-17.105V71.504
			c0-9.447-7.658-17.105-17.105-17.105H33.605c-9.447,0-17.105,7.658-17.105,17.105v57.441V143.018z"/>
		<path class="st3" d="M222.395,220.398H33.605c-10.259,0-18.605-8.346-18.605-18.605v-58.774c0-0.829,0.671-1.5,1.5-1.5
			s1.5,0.671,1.5,1.5v58.774c0,8.605,7,15.605,15.605,15.605h188.789c8.605,0,15.605-7,15.605-15.605V71.503
			c0-8.605-7.001-15.605-15.605-15.605H33.605C25,55.898,18,62.898,18,71.503v57.441c0,0.829-0.671,1.5-1.5,1.5s-1.5-0.671-1.5-1.5
			V71.503c0-10.259,8.346-18.605,18.605-18.605h188.789c10.259,0,18.605,8.346,18.605,18.605v130.289
			C241,212.052,232.654,220.398,222.395,220.398z"/>
		<path class="st4" d="M247.75,218.893c0,11.19-9.07,20.26-20.25,20.26h-199c-5.59,0-10.65-2.27-14.32-5.93
			c-3.66-3.67-5.93-8.73-5.93-14.33H247.75z"/>
		<path class="st3" d="M227.5,240.653h-199c-5.8,0-11.262-2.262-15.379-6.368c-4.109-4.12-6.371-9.586-6.371-15.392
			c0-0.398,0.158-0.779,0.439-1.061c0.281-0.281,0.663-0.439,1.061-0.439h239.5c0.829,0,1.5,0.671,1.5,1.5
			C249.25,230.892,239.493,240.653,227.5,240.653z M9.809,220.393c0.35,4.442,2.248,8.577,5.434,11.771
			c3.548,3.538,8.258,5.489,13.258,5.489h199c9.834,0,17.924-7.615,18.69-17.26H9.809z"/>
		<path class="st14" d="M86.201,66.898h-45.17c-6.583,0-11.92,5.337-11.92,11.92v115.66c0,6.583,5.337,11.92,11.92,11.92h173.938
			c6.583,0,11.92-5.337,11.92-11.92V78.818c0-6.583-5.337-11.92-11.92-11.92H99.799H86.201z"/>
		<path class="st3" d="M214.969,207.898H41.031c-7.4,0-13.42-6.02-13.42-13.42V78.818c0-7.4,6.02-13.42,13.42-13.42h173.938
			c7.4,0,13.42,6.02,13.42,13.42v115.66C228.389,201.878,222.369,207.898,214.969,207.898z M41.031,68.398
			c-5.746,0-10.42,4.674-10.42,10.42v115.66c0,5.746,4.674,10.42,10.42,10.42h173.938c5.746,0,10.42-4.674,10.42-10.42V78.818
			c0-5.746-4.674-10.42-10.42-10.42H41.031z"/>
		<path class="st4" d="M145.5,218.893v6.446c0,2.172-1.761,3.934-3.934,3.934h-25.133c-2.173,0-3.934-1.761-3.934-3.934v-6.446
			H145.5z"/>
		<path class="st3" d="M141.566,230.773h-25.133c-2.996,0-5.434-2.438-5.434-5.434v-6.446c0-0.829,0.671-1.5,1.5-1.5h33
			c0.829,0,1.5,0.671,1.5,1.5v6.446C147,228.335,144.562,230.773,141.566,230.773z M114,220.393v4.946
			c0,1.342,1.092,2.434,2.434,2.434h25.133c1.342,0,2.434-1.092,2.434-2.434v-4.946H114z"/>
		<path class="st7" d="M91.116,16.917c-14.892-0.511-29.868,2.132-43.899,7.944v107.968c25.795-10.685,54.777-10.685,80.572,0V24.86
			c-7.672-3.178-15.627-5.403-23.695-6.69L91.116,16.917z"/>
		<path class="st3" d="M127.788,134.328c-0.194,0-0.389-0.038-0.574-0.114c-25.609-10.608-53.816-10.607-79.423,0
			c-0.464,0.192-0.991,0.14-1.408-0.139c-0.417-0.278-0.667-0.746-0.667-1.247V24.86c0-0.607,0.365-1.154,0.926-1.386
			c14.181-5.874,29.17-8.586,44.525-8.057c0.828,0.028,1.476,0.723,1.448,1.55c-0.028,0.829-0.719,1.484-1.55,1.448
			c-14.602-0.5-28.84,2.005-42.348,7.452v104.74c25.099-9.801,52.474-9.801,77.572,0V25.868c-7.195-2.899-14.736-4.988-22.431-6.216
			c-0.818-0.131-1.376-0.9-1.245-1.718c0.13-0.818,0.9-1.375,1.718-1.245c8.257,1.317,16.343,3.601,24.033,6.786
			c0.561,0.232,0.926,0.779,0.926,1.386v107.968c0,0.501-0.25,0.969-0.667,1.247C128.371,134.243,128.081,134.328,127.788,134.328z"
			/>
		<path class="st7" d="M208.36,24.86c-25.795-10.685-54.777-10.685-80.572,0c0,35.989,0,71.979,0,107.968
			c25.795-10.684,54.777-10.684,80.572,0C208.36,96.839,208.36,60.85,208.36,24.86z"/>
		<path class="st3" d="M208.36,134.328c-0.194,0-0.389-0.038-0.574-0.114c-25.608-10.606-53.815-10.607-79.424,0
			c-0.464,0.192-0.991,0.14-1.408-0.139c-0.416-0.278-0.666-0.746-0.666-1.247V24.86c0-0.607,0.365-1.154,0.926-1.386
			c26.35-10.914,55.371-10.914,81.721,0c0.561,0.232,0.926,0.779,0.926,1.386v107.968c0,0.501-0.25,0.969-0.667,1.247
			C208.943,134.243,208.653,134.328,208.36,134.328z M129.288,25.868v104.74c25.099-9.801,52.474-9.801,77.572,0V25.868
			C181.808,15.764,154.342,15.764,129.288,25.868z"/>
		<path class="st3" d="M56.5,113.994c-0.641,0-1.234-0.414-1.433-1.058c-0.245-0.792,0.199-1.631,0.991-1.875
			c20.565-6.346,42.31-6.345,62.884-0.001c0.792,0.244,1.236,1.084,0.992,1.875c-0.244,0.792-1.083,1.236-1.875,0.992
			c-19.997-6.168-41.13-6.168-61.116-0.001C56.795,113.972,56.646,113.994,56.5,113.994z"/>
		<path class="st3" d="M137.499,113.854c-0.643,0-1.238-0.417-1.435-1.064c-0.241-0.793,0.207-1.63,0.999-1.871
			c20.226-6.145,41.62-6.159,61.87-0.041c0.793,0.24,1.241,1.077,1.002,1.87c-0.24,0.792-1.075,1.239-1.87,1.002
			c-19.681-5.946-40.473-5.933-60.13,0.039C137.79,113.833,137.644,113.854,137.499,113.854z"/>
		<path class="st3" d="M56.5,98.994c-0.641,0-1.234-0.414-1.433-1.058c-0.245-0.792,0.199-1.631,0.991-1.875
			c20.565-6.346,42.31-6.345,62.884-0.001c0.792,0.244,1.236,1.084,0.992,1.876c-0.244,0.792-1.083,1.236-1.875,0.992
			c-19.997-6.168-41.13-6.168-61.116-0.001C56.795,98.972,56.646,98.994,56.5,98.994z"/>
		<path class="st3" d="M137.499,98.854c-0.643,0-1.238-0.417-1.435-1.064c-0.241-0.793,0.207-1.63,0.999-1.871
			c20.226-6.145,41.62-6.159,61.87-0.041c0.793,0.24,1.241,1.077,1.002,1.87c-0.24,0.792-1.075,1.24-1.87,1.002
			c-19.681-5.946-40.473-5.933-60.13,0.039C137.79,98.833,137.644,98.854,137.499,98.854z"/>
		<path class="st3" d="M56.5,83.994c-0.641,0-1.234-0.414-1.433-1.058c-0.245-0.792,0.199-1.631,0.991-1.875
			c20.565-6.346,42.31-6.345,62.884-0.001c0.792,0.244,1.236,1.084,0.992,1.876c-0.244,0.792-1.083,1.237-1.875,0.992
			c-19.997-6.168-41.13-6.168-61.116-0.001C56.795,83.972,56.646,83.994,56.5,83.994z"/>
		<path class="st3" d="M137.499,83.854c-0.643,0-1.238-0.417-1.435-1.064c-0.241-0.792,0.207-1.63,0.999-1.871
			c20.226-6.146,41.62-6.159,61.87-0.041c0.793,0.24,1.241,1.077,1.002,1.87c-0.24,0.792-1.075,1.239-1.87,1.002
			c-19.681-5.946-40.473-5.933-60.13,0.039C137.79,83.833,137.644,83.854,137.499,83.854z"/>
		<path class="st3" d="M56.5,68.994c-0.641,0-1.234-0.414-1.433-1.058c-0.245-0.792,0.199-1.631,0.991-1.875
			c20.565-6.346,42.31-6.345,62.884-0.001c0.792,0.244,1.236,1.084,0.992,1.876c-0.244,0.792-1.083,1.236-1.875,0.992
			c-19.997-6.168-41.13-6.168-61.116-0.001C56.795,68.972,56.646,68.994,56.5,68.994z"/>
		<path class="st3" d="M137.499,68.854c-0.643,0-1.238-0.417-1.435-1.064c-0.241-0.792,0.207-1.63,0.999-1.871
			c20.226-6.145,41.62-6.159,61.87-0.041c0.793,0.24,1.241,1.077,1.002,1.87c-0.24,0.793-1.075,1.24-1.87,1.002
			c-19.681-5.947-40.473-5.933-60.13,0.039C137.79,68.833,137.644,68.854,137.499,68.854z"/>
		<path class="st3" d="M56.5,53.994c-0.641,0-1.234-0.414-1.433-1.058c-0.245-0.792,0.199-1.631,0.991-1.875
			c20.565-6.346,42.31-6.345,62.884,0c0.792,0.244,1.236,1.084,0.992,1.875c-0.244,0.792-1.083,1.236-1.875,0.992
			c-19.997-6.168-41.13-6.167-61.116,0C56.795,53.972,56.646,53.994,56.5,53.994z"/>
		<path class="st3" d="M137.499,53.854c-0.643,0-1.238-0.417-1.435-1.064c-0.241-0.792,0.207-1.63,0.999-1.871
			c20.226-6.145,41.62-6.159,61.87-0.041c0.793,0.24,1.241,1.077,1.002,1.87c-0.24,0.792-1.075,1.24-1.87,1.002
			c-19.681-5.946-40.473-5.932-60.13,0.039C137.79,53.833,137.644,53.854,137.499,53.854z"/>
		<path class="st3" d="M56.5,38.994c-0.641,0-1.234-0.414-1.433-1.058c-0.245-0.792,0.199-1.631,0.991-1.875
			c20.565-6.346,42.31-6.345,62.884-0.001c0.792,0.244,1.236,1.084,0.992,1.875c-0.244,0.792-1.083,1.236-1.875,0.992
			c-19.997-6.168-41.13-6.167-61.116,0C56.795,38.972,56.646,38.994,56.5,38.994z"/>
		<path class="st3" d="M137.499,38.854c-0.643,0-1.238-0.417-1.435-1.064c-0.241-0.792,0.207-1.63,0.999-1.871
			c20.226-6.145,41.62-6.159,61.87-0.041c0.793,0.24,1.241,1.077,1.002,1.87c-0.24,0.792-1.075,1.239-1.87,1.002
			c-19.681-5.946-40.473-5.933-60.13,0.039C137.79,38.833,137.644,38.854,137.499,38.854z"/>
		<polygon class="st8" points="167.056,140.627 160.802,170.352 171.121,165.13 182.31,187.243 195.578,180.53 184.389,158.417 
			194.709,153.196 		"/>
		<path class="st3" d="M182.31,188.743c-0.157,0-0.316-0.025-0.468-0.075c-0.378-0.124-0.691-0.393-0.871-0.748l-10.511-20.775
			l-8.981,4.544c-0.515,0.26-1.133,0.203-1.591-0.149c-0.458-0.351-0.673-0.934-0.554-1.498l6.254-29.724
			c0.094-0.446,0.384-0.824,0.79-1.03c0.406-0.205,0.883-0.215,1.298-0.027l27.653,12.568c0.525,0.239,0.867,0.757,0.879,1.334
			c0.012,0.577-0.308,1.109-0.822,1.37l-8.981,4.544l10.512,20.774c0.18,0.355,0.211,0.767,0.087,1.145
			c-0.124,0.378-0.393,0.691-0.748,0.871l-13.268,6.713C182.775,188.689,182.543,188.743,182.31,188.743z M171.122,163.63
			c0.157,0,0.315,0.025,0.468,0.075c0.378,0.124,0.691,0.393,0.871,0.748l10.511,20.775l10.591-5.359l-10.512-20.775
			c-0.18-0.355-0.211-0.767-0.087-1.145c0.124-0.378,0.393-0.691,0.748-0.871l7.531-3.811l-23.105-10.501l-5.225,24.835l7.531-3.811
			C170.656,163.684,170.889,163.63,171.122,163.63z"/>
		<path class="st17" d="M214.97,68.393h-5.11v9.76c0.01,0.22,0.02,0.44,0.02,0.66v115.67c0,5.74-4.68,10.41-10.42,10.41h15.51
			c5.74,0,10.42-4.67,10.42-10.41V78.813C225.39,73.073,220.71,68.393,214.97,68.393z"/>
	</g>
</g>
</svg>
