<?xml version="1.0" encoding="utf-8"?>
<!-- Generator: Adobe Illustrator 21.0.0, SVG Export Plug-In . SVG Version: 6.00 Build 0)  -->
<svg version="1.1" id="Layer_1" xmlns="http://www.w3.org/2000/svg" xmlns:xlink="http://www.w3.org/1999/xlink" x="0px" y="0px"
	 viewBox="0 0 64 64" style="enable-background:new 0 0 64 64;" xml:space="preserve">
<style type="text/css">
	.st0{fill:#455A64;stroke:#37474F;stroke-linecap:round;stroke-linejoin:round;stroke-miterlimit:10;}
	.st1{fill:#78909C;stroke:#37474F;stroke-linecap:round;stroke-linejoin:round;stroke-miterlimit:10;}
	.st2{fill:#ECEFF1;stroke:#37474F;stroke-linecap:round;stroke-linejoin:round;stroke-miterlimit:10;}
	.st3{fill:none;stroke:#FFFFFF;stroke-linecap:round;stroke-linejoin:round;stroke-miterlimit:10;}
	.st4{fill:#FFCA28;stroke:#37474F;stroke-linecap:round;stroke-linejoin:round;stroke-miterlimit:10;}
	.st5{fill:none;stroke:#37474F;stroke-linecap:round;stroke-linejoin:round;stroke-miterlimit:10;}
	.st6{fill:#B0BEC5;}
	.st7{fill:#37474F;}
	.st8{fill:#455A64;}
	.st9{fill:#9CCC65;stroke:#37474F;stroke-linecap:round;stroke-linejoin:round;stroke-miterlimit:10;}
	.st10{fill:none;stroke:#C5E1A5;stroke-linecap:round;stroke-linejoin:round;stroke-miterlimit:10;}
	.st11{fill:#26C6DA;stroke:#37474F;stroke-linecap:round;stroke-linejoin:round;stroke-miterlimit:10;}
	.st12{fill:#EF5350;stroke:#37474F;stroke-linecap:round;stroke-linejoin:round;stroke-miterlimit:10;}
	.st13{fill:#B0BEC5;stroke:#37474F;stroke-linecap:round;stroke-linejoin:round;stroke-miterlimit:10;}
	.st14{fill:none;stroke:#EF9A9A;stroke-linecap:round;stroke-linejoin:round;stroke-miterlimit:10;}
	.st15{fill:none;stroke:#FFE082;stroke-linecap:round;stroke-linejoin:round;stroke-miterlimit:10;}
	.st16{fill:#D32F2F;stroke:#37474F;stroke-linecap:round;stroke-linejoin:round;stroke-miterlimit:10;}
	.st17{fill:#0097A7;stroke:#37474F;stroke-linecap:round;stroke-linejoin:round;stroke-miterlimit:10;}
	.st18{fill:#689F38;stroke:#37474F;stroke-linecap:round;stroke-linejoin:round;stroke-miterlimit:10;}
	.st19{fill:#FFA000;stroke:#37474F;stroke-linecap:round;stroke-linejoin:round;stroke-miterlimit:10;}
	.st20{fill:#FFA000;}
	.st21{fill:#FF6F00;}
	.st22{fill:#D32F2F;}
	.st23{fill:#0097A7;}
	.st24{fill:none;stroke:#80DEEA;stroke-linecap:round;stroke-linejoin:round;stroke-miterlimit:10;}
	.st25{fill:#689F38;}
	.st26{fill:none;stroke:#B0BEC5;stroke-linecap:round;stroke-linejoin:round;stroke-miterlimit:10;}
	.st27{fill:#78909C;stroke:#37474F;stroke-miterlimit:10;}
	.st28{fill:#78909C;}
	.st29{fill:#B71C1C;}
	.st30{fill:#F57F17;}
	.st31{fill:#006064;}
	.st32{fill:#26A69A;stroke:#37474F;stroke-linecap:round;stroke-linejoin:round;stroke-miterlimit:10;}
</style>
<g>
	<path class="st13" d="M0.5,21.4v21c0,5.5,4.5,10,10,10h4c1.4,0,2.5,1.1,2.5,2.5V61c0,0.9,1.1,1.3,1.7,0.7l7.8-7.8
		c0.9-0.9,2.2-1.5,3.5-1.5h13.4c5.5,0,10-4.5,10-10v-21c0-5.5-4.5-10-10-10h-33C5,11.4,0.5,15.9,0.5,21.4z"/>
	<path class="st2" d="M0.5,17.4v21c0,5.5,4.5,10,10,10h4c1.4,0,2.5,1.1,2.5,2.5V57c0,0.9,1.1,1.3,1.7,0.7l7.8-7.8
		c0.9-0.9,2.2-1.5,3.5-1.5h13.4c5.5,0,10-4.5,10-10v-21c0-5.5-4.5-10-10-10h-33C5,7.4,0.5,11.9,0.5,17.4z"/>
	<path class="st3" d="M2.5,23.4v-6c0-4.4,3.6-8,8-8h6"/>
	<line class="st5" x1="6.5" y1="18.4" x2="33.5" y2="18.4"/>
	<line class="st5" x1="6.5" y1="23.4" x2="26.5" y2="23.4"/>
	<line class="st5" x1="6.5" y1="28.4" x2="16.5" y2="28.4"/>
	<path class="st6" d="M44.8,8l-2.9,2.9c-1.1,1.1-1.4,2.6-1,4c-0.4,0.6-0.6,1.2-0.6,1.9L29.8,27.2c-0.3,0.3-0.5,0.8-0.6,1.3l-3.3,3.3
		c-0.3,0.3-0.4,0.6-0.5,0.9l-1.8,6.7c0,0.2-0.1,0.3-0.1,0.5c0,0.5,0.2,1,0.6,1.4c0.4,0.4,0.9,0.6,1.4,0.6h0c0.2,0,0.3,0,0.5-0.1
		l6.7-1.8c0.3-0.1,0.7-0.3,0.9-0.5l3.3-3.3c0.5,0,0.9-0.2,1.3-0.6l10.4-10.4c1-0.1,2-0.5,2.7-1.3l1.6-1.6v-5
		C53,12.6,49.4,8.6,44.8,8z"/>
	<g>
		<path class="st12" d="M62.3,3.2L62.3,3.2c1.6,1.6,1.6,4.1,0,5.7L36.9,34.3l-5.7-5.7L56.7,3.2C58.2,1.6,60.8,1.6,62.3,3.2z"/>
		<polygon class="st2" points="31.6,29 36.5,33.9 32.3,38.2 25.6,39.9 27.3,33.2 		"/>
		<path class="st1" d="M43.2,15.2L43.2,15.2c-0.8-0.8-0.8-2,0-2.8l7.1-7.1c0.8-0.8,2-0.8,2.8,0v0L43.2,15.2z"/>
		<path class="st1" d="M59.9,12.7L50,22.6c-1,1-2.6,1-3.5,0l-3.5-3.5c-1-1-1-2.6,0-3.5l9.9-9.9c1-1,2.6-1,3.5,0l3.5,3.5
			C60.8,10.2,60.8,11.7,59.9,12.7z"/>
		<polygon class="st1" points="26.7,35.5 25.6,39.9 30,38.8 		"/>
	</g>
</g>
</svg>
